<svg xmlns="http://www.w3.org/2000/svg" style="width:100px;top:6px;position:relative" fill="none" viewBox="0 0 600 198"><path fill="currentColor" fill-rule="evenodd" d="M0 198s126-32 306.7-32c167.9 0 293.3 30.9 293.3 30.9s-125.5-45.8-293.3-45.8C116.2 151.1 0 198 0 198Z" clip-rule="evenodd"/><path fill="currentColor" d="M197.8 2h-97.6v26h97.6V2Z"/><path stroke="currentColor" stroke-miterlimit="3.864" stroke-width="3.817" d="M197.8 2h-97.6v26h97.6V2Z"/><path fill="currentColor" d="M245.3 2h-34.2v121.4h34.2V2Z"/><path stroke="currentColor" stroke-miterlimit="3.864" stroke-width="3.817" d="M245.3 2h-34.2v121.4h34.2V2Z"/><path fill="currentColor" d="M296.3 2.3 322 80l26.4-77.7h114.4c13.9 0 36.1 9.1 36.1 34.5 0 20.9-16.3 24.6-16.3 24.6s18.5 2.2 18.5 26.7c0 23.8-18.3 35-46.5 35h-60.7V97.2h56.8c6.8-.1 15.7-.7 16.2-9.7.7-10.7-8.6-11.1-15.9-11.1h-57.2v-27h58.3c4 0 12.8-1.6 12.9-9.8 0-5.6-1.1-11.8-12.1-11.8h-79.8l-33.5 95.3h-34.8l-34.2-94.9h-13.3V2.3h39Z"/><path stroke="currentColor" stroke-miterlimit="3.864" stroke-width="3.817" d="M296.3 2.3 322 80l26.4-77.7h114.4c13.9 0 36.1 9.1 36.1 34.5 0 20.9-16.3 24.6-16.3 24.6s18.5 2.2 18.5 26.7c0 23.8-18.3 35-46.5 35h-60.7V97.2h56.8c6.8-.1 15.7-.7 16.2-9.7.7-10.7-8.6-11.1-15.9-11.1h-57.2v-27h58.3c4 0 12.8-1.6 12.9-9.8 0-5.6-1.1-11.8-12.1-11.8h-79.8l-33.5 95.3h-34.8l-34.2-94.9h-13.3V2.3h39Z"/><path fill="currentColor" d="M100.3 46.6H188v27h-53.6v49.7h-34.1V46.6Z"/><path stroke="currentColor" stroke-miterlimit="3.864" stroke-width="3.817" d="M100.3 46.6H188v27h-53.6v49.7h-34.1V46.6Z"/><path fill="currentColor" d="M504.1 121v-7.9h1.7l2 5.6.4 1.2.5-1.3 2.1-5.5h1.5v7.9h-1.1v-6.6l-2.5 6.6h-1l-2.5-6.7v6.7h-1.1Zm-5.2 0v-7h-2.8v-.9h6.8v.9h-2.8v7h-1.2Z"/><path fill="currentColor" fill-rule="evenodd" d="M498.9 121v-7h-2.8v-.9h6.8v.9h-2.8v7h-1.2Zm5.2 0v-7.9h1.7l2 5.6c.2.5.3.9.4 1.2.1-.3.2-.7.5-1.3l2.1-5.5h1.5v7.9h-1.1v-6.6l-2.5 6.6h-1l-2.5-6.7v6.7h-1.1Z" clip-rule="evenodd"/><path stroke="currentColor" stroke-miterlimit="3.864" stroke-width="1.334" d="M504.1 121v-7.9h1.7l2 5.6.4 1.2.5-1.3 2.1-5.5h1.5v7.9h-1.1v-6.6l-2.5 6.6h-1l-2.5-6.7v6.7h-1.1Zm-5.2 0v-7h-2.8v-.9h6.8v.9h-2.8v7h-1.2Z"/></svg>